<?xml version="1.0" standalone="no"?>
<!DOCTYPE svg PUBLIC "-//W3C//DTD SVG 20010904//EN"
 "http://www.w3.org/TR/2001/REC-SVG-20010904/DTD/svg10.dtd">
<svg version="1.0" xmlns="http://www.w3.org/2000/svg"
 width="500.000000pt" height="500.000000pt" viewBox="0 0 500.000000 500.000000"
 preserveAspectRatio="xMidYMid meet">

<g transform="translate(0.000000,500.000000) scale(0.100000,-0.100000)"
fill="#000000" stroke="none">
<path d="M2245 4886 c-52 -17 -115 -49 -151 -79 -16 -12 -60 -36 -99 -52 -170
-71 -251 -239 -171 -357 19 -28 34 -36 105 -55 46 -12 87 -26 92 -30 7 -8 89
-259 89 -274 0 -5 -46 -9 -102 -9 -259 0 -454 -64 -525 -171 -27 -40 -28 -49
-28 -159 l-1 -115 -52 -76 c-29 -42 -88 -119 -131 -171 l-79 -95 -66 -230
c-36 -127 -100 -335 -141 -463 -84 -256 -125 -414 -125 -476 l0 -41 -88 -23
c-48 -13 -95 -27 -104 -32 -44 -22 -143 -289 -174 -468 -22 -129 -14 -416 15
-541 59 -257 193 -525 374 -749 l60 -75 91 90 c233 231 524 363 871 396 198
18 437 -9 695 -81 246 -68 393 -90 612 -90 260 0 463 43 663 140 120 59 200
115 302 213 201 194 309 420 344 718 15 131 7 252 -31 484 -77 469 -85 863
-24 1150 8 39 18 83 21 99 l6 29 -114 -7 c-463 -28 -874 -183 -1190 -448 l-72
-60 8 68 c10 101 30 192 76 344 56 184 69 250 69 353 l0 87 -107 71 c-99 65
-361 203 -460 242 -29 11 -43 23 -42 34 0 10 19 85 42 168 l42 149 115 16 c63
8 121 19 128 23 29 19 53 88 53 154 0 126 -82 234 -209 273 -35 11 -75 20 -88
20 -12 0 -49 16 -81 35 -89 54 -198 85 -296 84 -45 0 -100 -6 -122 -13z m112
-431 c5 -8 4 -49 -1 -90 l-9 -75 -39 0 c-41 0 -48 -10 -22 -31 15 -12 14 -14
-7 -19 -13 -3 -25 -14 -27 -23 -3 -14 4 -17 37 -17 50 0 57 -24 10 -34 -33 -6
-35 -29 -3 -35 42 -7 61 -52 28 -65 -35 -14 -67 -5 -98 27 -26 26 -38 53 -61
141 -25 98 -27 112 -14 134 8 14 27 30 42 35 26 8 32 6 56 -24 l28 -33 12 50
c7 27 17 54 23 61 14 17 35 16 45 -2z m177 -81 c34 -33 -22 -71 -82 -55 -35
10 -50 35 -33 55 18 21 94 21 115 0z m-230 -484 c-19 -55 -16 -68 15 -84 17
-9 31 -20 31 -24 0 -11 -60 -47 -113 -67 -58 -22 -155 -25 -218 -7 -25 8 -68
31 -95 53 -80 63 -122 82 -184 82 l-55 0 45 14 c83 25 220 36 357 28 l131 -7
7 34 c4 18 9 37 12 41 8 13 72 -47 67 -63z m581 -175 c72 -36 156 -85 188
-110 47 -38 57 -50 57 -76 l0 -31 -67 7 -66 7 -86 87 c-47 49 -113 111 -146
140 -76 66 -55 62 120 -24z m-1132 -130 c18 -13 16 -17 -24 -72 -78 -107 -163
-207 -255 -303 l-92 -95 -85 -265 c-47 -146 -91 -284 -98 -307 -11 -40 -15
-43 -47 -43 -24 0 -33 4 -29 13 8 21 121 425 158 565 l33 124 69 71 c38 39 98
109 135 156 138 180 129 171 175 171 23 0 50 -7 60 -15z m652 -65 c16 -6 25
-16 23 -26 -2 -12 -20 -15 -83 -17 -52 -2 -92 -9 -114 -20 -35 -17 -51 -15
-51 7 0 47 151 84 225 56z m23 -142 c28 -28 12 -36 -75 -41 -49 -3 -99 -7
-113 -9 -38 -5 -31 24 10 44 41 21 159 25 178 6z m11 -124 c31 -22 12 -39 -40
-35 -22 1 -63 -3 -91 -9 -37 -9 -53 -9 -61 -1 -40 40 139 82 192 45z m10 -113
c28 -18 4 -41 -42 -41 -24 0 -65 -3 -91 -6 -39 -6 -46 -4 -46 10 0 10 14 23
33 31 36 16 125 19 146 6z m-540 -93 c6 -18 22 -82 36 -141 14 -60 32 -125 40
-144 14 -34 14 -38 -11 -82 -45 -80 -96 -212 -124 -324 l-27 -107 -60 40 c-33
22 -66 46 -72 54 -10 12 -30 5 -126 -45 l-114 -60 -16 30 c-8 17 -19 31 -24
31 -4 0 -13 11 -19 25 -9 20 -6 43 18 127 37 131 100 314 137 397 l29 63 154
84 c85 46 158 84 162 84 3 0 11 -15 17 -32z m440 -285 c-108 -166 -166 -322
-204 -555 l-6 -38 -69 0 -70 0 0 54 c0 130 47 302 121 446 60 117 82 138 159
155 36 7 77 14 92 14 l28 1 -51 -77z m-1112 -444 c20 -6 42 -28 61 -59 l31
-49 -33 -11 c-18 -6 -40 -8 -50 -4 -43 17 -55 -39 -20 -94 14 -21 16 -21 37
-7 23 16 63 20 71 7 3 -4 -14 -30 -36 -56 -32 -38 -46 -47 -65 -43 -13 2 -26
0 -29 -5 -3 -5 -42 -6 -87 -3 -71 5 -87 10 -117 34 -40 33 -41 49 -9 148 22
68 76 128 126 139 16 3 33 7 38 9 20 7 53 5 82 -6z"/>
</g>
</svg>
